<svg width="24" height="25" viewBox="0 0 24 25" fill="none" xmlns="http://www.w3.org/2000/svg">
<path d="M11.9 22.279L16.45 10.4186H18.55L23.1 22.279H21L19.95 19.2645H15.1L14 22.279H11.9ZM15.7 17.5349H19.3L17.55 12.6424H17.45L15.7 17.5349ZM4 19.3139L2.6 17.9302L7.65 12.9389C7.01667 12.2471 6.4625 11.5305 5.9875 10.7892C5.5125 10.0479 5.1 9.26547 4.75 8.44183H6.85C7.15 9.03485 7.47083 9.57022 7.8125 10.0479C8.15417 10.5256 8.56667 11.0281 9.05 11.5552C9.78333 10.7645 10.3917 9.95321 10.875 9.12133C11.3583 8.28945 11.7667 7.40404 12.1 6.46508H1V4.48834H8V2.5116H10V4.48834H17V6.46508H14.1C13.75 7.63466 13.275 8.77129 12.675 9.87497C12.075 10.9787 11.3333 12.0164 10.45 12.9883L12.85 15.4099L12.1 17.436L9 14.3721L4 19.3139Z" fill="url(#paint0_linear_10_9)"/>
<defs>
<linearGradient id="paint0_linear_10_9" x1="12.05" y1="2.5116" x2="12.05" y2="22.279" gradientUnits="userSpaceOnUse">
<stop stop-color="#B6F829"/>
<stop offset="1" stop-color="#67DD0A"/>
</linearGradient>
</defs>
</svg>
