<svg width="152" height="48" viewBox="0 0 152 48" fill="none" xmlns="http://www.w3.org/2000/svg">
<path d="M13.288 33.96C13.288 36.616 12.808 38.808 11.848 40.536C10.92 42.264 9.672 43.608 8.104 44.568C6.568 45.56 4.728 46.408 2.584 47.112L0.472 41.544C1.88 41 2.936 40.376 3.64 39.672C4.344 38.968 4.808 38.152 5.032 37.224C5.288 36.296 5.416 35.112 5.416 33.672V5.73599H13.288V33.96Z" fill="black"/>
<path d="M40.7144 39H34.1384L33.8024 35.784C31.9464 38.472 29.3704 39.816 26.0744 39.816C23.7384 39.816 21.9624 39.112 20.7464 37.704C19.5624 36.296 18.9704 34.328 18.9704 31.8V13.512H26.5544V30.84C26.5544 32.088 26.7464 32.968 27.1304 33.48C27.5464 33.96 28.1704 34.2 29.0024 34.2C30.6024 34.2 31.9784 33.208 33.1304 31.224V13.512H40.7144V39Z" fill="black"/>
<path d="M53.4471 39.816C51.2391 39.816 49.5111 39.192 48.2631 37.944C47.0471 36.664 46.4391 34.856 46.4391 32.52V3.38399L54.0231 2.56799V32.232C54.0231 33.288 54.4551 33.816 55.3191 33.816C55.7671 33.816 56.1831 33.736 56.5671 33.576L58.0551 38.952C56.6791 39.528 55.1431 39.816 53.4471 39.816Z" fill="black"/>
<path d="M68.5131 13.512V39H60.9291V13.512H68.5131ZM64.6731 0.071991C65.9851 0.071991 67.0571 0.487991 67.8891 1.31999C68.7531 2.11999 69.1851 3.14399 69.1851 4.39199C69.1851 5.63999 68.7531 6.67999 67.8891 7.51199C67.0571 8.31199 65.9851 8.71199 64.6731 8.71199C63.3611 8.71199 62.2891 8.31199 61.4571 7.51199C60.6251 6.67999 60.2091 5.63999 60.2091 4.39199C60.2091 3.14399 60.6251 2.11999 61.4571 1.31999C62.2891 0.487991 63.3611 0.071991 64.6731 0.071991Z" fill="black"/>
<path d="M94.732 31.608C94.732 32.568 94.86 33.272 95.116 33.72C95.404 34.168 95.852 34.504 96.46 34.728L94.876 39.672C93.308 39.544 92.028 39.208 91.036 38.664C90.044 38.088 89.276 37.192 88.732 35.976C87.068 38.536 84.508 39.816 81.052 39.816C78.524 39.816 76.508 39.08 75.004 37.608C73.5 36.136 72.748 34.216 72.748 31.848C72.748 29.064 73.772 26.936 75.82 25.464C77.868 23.992 80.828 23.256 84.7 23.256H87.292V22.152C87.292 20.648 86.972 19.624 86.332 19.08C85.692 18.504 84.572 18.216 82.972 18.216C82.14 18.216 81.132 18.344 79.948 18.6C78.764 18.824 77.548 19.144 76.3 19.56L74.572 14.568C76.172 13.96 77.804 13.496 79.468 13.176C81.164 12.856 82.732 12.696 84.172 12.696C87.82 12.696 90.492 13.448 92.188 14.952C93.884 16.456 94.732 18.712 94.732 21.72V31.608ZM83.26 34.392C84.988 34.392 86.332 33.576 87.292 31.944V27.432H85.42C83.692 27.432 82.396 27.736 81.532 28.344C80.7 28.952 80.284 29.896 80.284 31.176C80.284 32.2 80.54 33 81.052 33.576C81.596 34.12 82.332 34.392 83.26 34.392Z" fill="black"/>
<path d="M115.701 12.696C117.909 12.696 119.637 13.368 120.885 14.712C122.133 16.056 122.757 17.944 122.757 20.376V39H115.173V21.672C115.173 20.392 114.965 19.512 114.549 19.032C114.165 18.52 113.573 18.264 112.773 18.264C111.237 18.264 109.765 19.368 108.357 21.576V39H100.773V13.512H107.397L107.925 16.536C109.013 15.256 110.181 14.296 111.429 13.656C112.709 13.016 114.133 12.696 115.701 12.696Z" fill="black"/>
<path d="M139.516 12.696C143.42 12.696 146.476 13.896 148.684 16.296C150.892 18.664 151.996 21.992 151.996 26.28C151.996 29 151.484 31.384 150.46 33.432C149.468 35.448 148.028 37.016 146.14 38.136C144.284 39.256 142.076 39.816 139.516 39.816C135.644 39.816 132.588 38.632 130.348 36.264C128.14 33.864 127.036 30.52 127.036 26.232C127.036 23.512 127.532 21.144 128.524 19.128C129.548 17.08 130.988 15.496 132.844 14.376C134.732 13.256 136.956 12.696 139.516 12.696ZM139.516 18.264C137.98 18.264 136.828 18.92 136.06 20.232C135.292 21.512 134.908 23.512 134.908 26.232C134.908 29.016 135.276 31.048 136.012 32.328C136.78 33.608 137.948 34.248 139.516 34.248C141.052 34.248 142.204 33.608 142.972 32.328C143.74 31.016 144.124 29 144.124 26.28C144.124 23.496 143.74 21.464 142.972 20.184C142.236 18.904 141.084 18.264 139.516 18.264Z" fill="black"/>
</svg>
